<mxfile host="Electron" modified="2023-10-11T06:49:41.300Z" agent="Mozilla/5.0 (Windows NT 10.0; Win64; x64) AppleWebKit/537.36 (KHTML, like Gecko) draw.io/21.6.5 Chrome/114.0.5735.243 Electron/25.3.1 Safari/537.36" etag="tRq31DyM7wP6hWFqky-8" version="21.6.5" type="device">
  <diagram id="C5RBs43oDa-KdzZeNtuy" name="Page-1">
    <mxGraphModel dx="1050" dy="-179" grid="0" gridSize="14" guides="1" tooltips="1" connect="1" arrows="1" fold="1" page="0" pageScale="1" pageWidth="827" pageHeight="1169" math="0" shadow="0">
      <root>
        <mxCell id="WIyWlLk6GJQsqaUBKTNV-0" />
        <mxCell id="WIyWlLk6GJQsqaUBKTNV-1" parent="WIyWlLk6GJQsqaUBKTNV-0" />
        <mxCell id="346jWCT2rO-VqJYA6r8t-1" value="" style="ellipse;html=1;shape=startState;fillColor=#000000;strokeColor=#ffffff;strokeWidth=2;" parent="WIyWlLk6GJQsqaUBKTNV-1" vertex="1">
          <mxGeometry x="409.5" y="1191" width="41" height="40" as="geometry" />
        </mxCell>
        <mxCell id="346jWCT2rO-VqJYA6r8t-2" value="" style="endArrow=classic;html=1;rounded=0;exitX=0.5;exitY=1;exitDx=0;exitDy=0;strokeWidth=2;" parent="WIyWlLk6GJQsqaUBKTNV-1" edge="1">
          <mxGeometry width="50" height="50" relative="1" as="geometry">
            <mxPoint x="429" y="1312" as="sourcePoint" />
            <mxPoint x="429" y="1368" as="targetPoint" />
          </mxGeometry>
        </mxCell>
        <mxCell id="346jWCT2rO-VqJYA6r8t-3" value="" style="endArrow=classic;html=1;rounded=0;entryX=0.5;entryY=0;entryDx=0;entryDy=0;exitX=0.5;exitY=1;exitDx=0;exitDy=0;exitPerimeter=0;strokeWidth=2;" parent="WIyWlLk6GJQsqaUBKTNV-1" source="346jWCT2rO-VqJYA6r8t-30" target="346jWCT2rO-VqJYA6r8t-4" edge="1">
          <mxGeometry width="50" height="50" relative="1" as="geometry">
            <mxPoint x="456" y="1472" as="sourcePoint" />
            <mxPoint x="432" y="1512" as="targetPoint" />
          </mxGeometry>
        </mxCell>
        <mxCell id="346jWCT2rO-VqJYA6r8t-58" style="edgeStyle=orthogonalEdgeStyle;rounded=0;orthogonalLoop=1;jettySize=auto;html=1;exitX=0.5;exitY=1;exitDx=0;exitDy=0;entryX=0.5;entryY=0;entryDx=0;entryDy=0;entryPerimeter=0;strokeWidth=2;" parent="WIyWlLk6GJQsqaUBKTNV-1" source="346jWCT2rO-VqJYA6r8t-4" target="346jWCT2rO-VqJYA6r8t-54" edge="1">
          <mxGeometry relative="1" as="geometry" />
        </mxCell>
        <mxCell id="346jWCT2rO-VqJYA6r8t-4" value="&lt;b&gt;Check&lt;/b&gt;" style="rhombus;whiteSpace=wrap;html=1;strokeWidth=2;" parent="WIyWlLk6GJQsqaUBKTNV-1" vertex="1">
          <mxGeometry x="390" y="1456" width="80" height="80" as="geometry" />
        </mxCell>
        <mxCell id="346jWCT2rO-VqJYA6r8t-5" value="" style="endArrow=none;html=1;rounded=0;exitX=1;exitY=0.5;exitDx=0;exitDy=0;strokeWidth=2;" parent="WIyWlLk6GJQsqaUBKTNV-1" source="346jWCT2rO-VqJYA6r8t-4" edge="1">
          <mxGeometry width="50" height="50" relative="1" as="geometry">
            <mxPoint x="400" y="1562" as="sourcePoint" />
            <mxPoint x="552" y="1496" as="targetPoint" />
          </mxGeometry>
        </mxCell>
        <mxCell id="346jWCT2rO-VqJYA6r8t-8" value="&lt;b&gt;Invalid&lt;/b&gt;" style="text;html=1;strokeColor=none;fillColor=none;align=center;verticalAlign=middle;whiteSpace=wrap;rounded=0;strokeWidth=2;" parent="WIyWlLk6GJQsqaUBKTNV-1" vertex="1">
          <mxGeometry x="464" y="1464" width="60" height="30" as="geometry" />
        </mxCell>
        <mxCell id="346jWCT2rO-VqJYA6r8t-9" value="&lt;b&gt;Valid&lt;/b&gt;" style="text;html=1;strokeColor=none;fillColor=none;align=center;verticalAlign=middle;whiteSpace=wrap;rounded=0;strokeWidth=2;" parent="WIyWlLk6GJQsqaUBKTNV-1" vertex="1">
          <mxGeometry x="424" y="1528" width="60" height="30" as="geometry" />
        </mxCell>
        <mxCell id="346jWCT2rO-VqJYA6r8t-18" value="" style="endArrow=classic;html=1;rounded=0;strokeWidth=2;" parent="WIyWlLk6GJQsqaUBKTNV-1" edge="1">
          <mxGeometry width="50" height="50" relative="1" as="geometry">
            <mxPoint x="430" y="1992" as="sourcePoint" />
            <mxPoint x="430" y="2056" as="targetPoint" />
          </mxGeometry>
        </mxCell>
        <mxCell id="346jWCT2rO-VqJYA6r8t-19" style="edgeStyle=orthogonalEdgeStyle;rounded=0;orthogonalLoop=1;jettySize=auto;html=1;exitX=0.5;exitY=1;exitDx=0;exitDy=0;entryX=0.5;entryY=0;entryDx=0;entryDy=0;exitPerimeter=0;strokeWidth=2;" parent="WIyWlLk6GJQsqaUBKTNV-1" source="346jWCT2rO-VqJYA6r8t-52" edge="1">
          <mxGeometry relative="1" as="geometry">
            <mxPoint x="430" y="2112" as="sourcePoint" />
            <mxPoint x="434" y="2240" as="targetPoint" />
          </mxGeometry>
        </mxCell>
        <mxCell id="346jWCT2rO-VqJYA6r8t-26" value="" style="edgeStyle=segmentEdgeStyle;endArrow=classic;html=1;curved=0;rounded=0;endSize=8;startSize=8;strokeWidth=2;" parent="WIyWlLk6GJQsqaUBKTNV-1" edge="1">
          <mxGeometry width="50" height="50" relative="1" as="geometry">
            <mxPoint x="752" y="1744" as="sourcePoint" />
            <mxPoint x="688" y="1792" as="targetPoint" />
          </mxGeometry>
        </mxCell>
        <mxCell id="346jWCT2rO-VqJYA6r8t-27" value="&lt;b&gt;Fork&lt;/b&gt;" style="text;html=1;strokeColor=none;fillColor=none;align=center;verticalAlign=middle;whiteSpace=wrap;rounded=0;strokeWidth=2;" parent="WIyWlLk6GJQsqaUBKTNV-1" vertex="1">
          <mxGeometry x="744" y="1728" width="60" height="30" as="geometry" />
        </mxCell>
        <mxCell id="346jWCT2rO-VqJYA6r8t-28" value="" style="edgeStyle=segmentEdgeStyle;endArrow=classic;html=1;curved=0;rounded=0;endSize=8;startSize=8;strokeWidth=2;" parent="WIyWlLk6GJQsqaUBKTNV-1" edge="1">
          <mxGeometry width="50" height="50" relative="1" as="geometry">
            <mxPoint x="760" y="2072" as="sourcePoint" />
            <mxPoint x="697" y="1992" as="targetPoint" />
          </mxGeometry>
        </mxCell>
        <mxCell id="346jWCT2rO-VqJYA6r8t-29" value="&lt;b&gt;Join&lt;/b&gt;" style="text;html=1;strokeColor=none;fillColor=none;align=center;verticalAlign=middle;whiteSpace=wrap;rounded=0;strokeWidth=2;" parent="WIyWlLk6GJQsqaUBKTNV-1" vertex="1">
          <mxGeometry x="748" y="2056" width="60" height="30" as="geometry" />
        </mxCell>
        <mxCell id="346jWCT2rO-VqJYA6r8t-30" value="&lt;b style=&quot;border-color: var(--border-color);&quot;&gt;Authentication&lt;/b&gt;" style="strokeWidth=2;html=1;shape=mxgraph.flowchart.terminator;whiteSpace=wrap;" parent="WIyWlLk6GJQsqaUBKTNV-1" vertex="1">
          <mxGeometry x="378" y="1368" width="104" height="40" as="geometry" />
        </mxCell>
        <mxCell id="346jWCT2rO-VqJYA6r8t-67" style="edgeStyle=orthogonalEdgeStyle;rounded=0;orthogonalLoop=1;jettySize=auto;html=1;exitX=0.5;exitY=1;exitDx=0;exitDy=0;exitPerimeter=0;strokeWidth=2;" parent="WIyWlLk6GJQsqaUBKTNV-1" source="346jWCT2rO-VqJYA6r8t-32" edge="1">
          <mxGeometry relative="1" as="geometry">
            <mxPoint x="138" y="1976" as="targetPoint" />
          </mxGeometry>
        </mxCell>
        <mxCell id="346jWCT2rO-VqJYA6r8t-32" value="&lt;b&gt;Add Delete/&lt;br&gt;Item&lt;/b&gt;" style="strokeWidth=2;html=1;shape=mxgraph.flowchart.terminator;whiteSpace=wrap;" parent="WIyWlLk6GJQsqaUBKTNV-1" vertex="1">
          <mxGeometry x="88" y="1848" width="100" height="40" as="geometry" />
        </mxCell>
        <mxCell id="346jWCT2rO-VqJYA6r8t-73" style="edgeStyle=orthogonalEdgeStyle;rounded=0;orthogonalLoop=1;jettySize=auto;html=1;exitX=0.5;exitY=1;exitDx=0;exitDy=0;exitPerimeter=0;strokeWidth=2;" parent="WIyWlLk6GJQsqaUBKTNV-1" source="346jWCT2rO-VqJYA6r8t-34" edge="1">
          <mxGeometry relative="1" as="geometry">
            <mxPoint x="328" y="1976" as="targetPoint" />
          </mxGeometry>
        </mxCell>
        <mxCell id="346jWCT2rO-VqJYA6r8t-34" value="&lt;b&gt;Make Reviwes&lt;/b&gt;" style="strokeWidth=2;html=1;shape=mxgraph.flowchart.terminator;whiteSpace=wrap;" parent="WIyWlLk6GJQsqaUBKTNV-1" vertex="1">
          <mxGeometry x="278" y="1848" width="100" height="40" as="geometry" />
        </mxCell>
        <mxCell id="346jWCT2rO-VqJYA6r8t-69" style="edgeStyle=orthogonalEdgeStyle;rounded=0;orthogonalLoop=1;jettySize=auto;html=1;exitX=0.5;exitY=1;exitDx=0;exitDy=0;exitPerimeter=0;entryX=0.5;entryY=0;entryDx=0;entryDy=0;entryPerimeter=0;strokeWidth=2;" parent="WIyWlLk6GJQsqaUBKTNV-1" source="346jWCT2rO-VqJYA6r8t-36" target="346jWCT2rO-VqJYA6r8t-47" edge="1">
          <mxGeometry relative="1" as="geometry" />
        </mxCell>
        <mxCell id="346jWCT2rO-VqJYA6r8t-36" value="&lt;b&gt;Manage Order&lt;/b&gt;" style="strokeWidth=2;html=1;shape=mxgraph.flowchart.terminator;whiteSpace=wrap;" parent="WIyWlLk6GJQsqaUBKTNV-1" vertex="1">
          <mxGeometry x="508" y="1840" width="100" height="40" as="geometry" />
        </mxCell>
        <mxCell id="346jWCT2rO-VqJYA6r8t-70" style="edgeStyle=orthogonalEdgeStyle;rounded=0;orthogonalLoop=1;jettySize=auto;html=1;exitX=0.5;exitY=1;exitDx=0;exitDy=0;exitPerimeter=0;strokeWidth=2;" parent="WIyWlLk6GJQsqaUBKTNV-1" source="346jWCT2rO-VqJYA6r8t-47" edge="1">
          <mxGeometry relative="1" as="geometry">
            <mxPoint x="560" y="1976" as="targetPoint" />
          </mxGeometry>
        </mxCell>
        <mxCell id="346jWCT2rO-VqJYA6r8t-47" value="&lt;b&gt;Confirm / cancel Order&lt;/b&gt;" style="strokeWidth=2;html=1;shape=mxgraph.flowchart.terminator;whiteSpace=wrap;" parent="WIyWlLk6GJQsqaUBKTNV-1" vertex="1">
          <mxGeometry x="508" y="1904" width="110" height="48" as="geometry" />
        </mxCell>
        <mxCell id="346jWCT2rO-VqJYA6r8t-52" value="&lt;b&gt;Log out&lt;/b&gt;" style="strokeWidth=2;html=1;shape=mxgraph.flowchart.terminator;whiteSpace=wrap;" parent="WIyWlLk6GJQsqaUBKTNV-1" vertex="1">
          <mxGeometry x="384" y="2152" width="100" height="40" as="geometry" />
        </mxCell>
        <mxCell id="346jWCT2rO-VqJYA6r8t-65" style="edgeStyle=orthogonalEdgeStyle;rounded=0;orthogonalLoop=1;jettySize=auto;html=1;exitX=0.5;exitY=1;exitDx=0;exitDy=0;exitPerimeter=0;entryX=0.5;entryY=0;entryDx=0;entryDy=0;entryPerimeter=0;strokeWidth=2;" parent="WIyWlLk6GJQsqaUBKTNV-1" source="346jWCT2rO-VqJYA6r8t-53" target="346jWCT2rO-VqJYA6r8t-52" edge="1">
          <mxGeometry relative="1" as="geometry" />
        </mxCell>
        <mxCell id="346jWCT2rO-VqJYA6r8t-53" value="&lt;b&gt;Make Payment&lt;/b&gt;" style="strokeWidth=2;html=1;shape=mxgraph.flowchart.terminator;whiteSpace=wrap;" parent="WIyWlLk6GJQsqaUBKTNV-1" vertex="1">
          <mxGeometry x="384" y="2056" width="100" height="40" as="geometry" />
        </mxCell>
        <mxCell id="346jWCT2rO-VqJYA6r8t-59" style="edgeStyle=orthogonalEdgeStyle;rounded=0;orthogonalLoop=1;jettySize=auto;html=1;exitX=0.5;exitY=1;exitDx=0;exitDy=0;exitPerimeter=0;strokeWidth=2;" parent="WIyWlLk6GJQsqaUBKTNV-1" source="346jWCT2rO-VqJYA6r8t-54" edge="1">
          <mxGeometry relative="1" as="geometry">
            <mxPoint x="430" y="1648" as="targetPoint" />
          </mxGeometry>
        </mxCell>
        <mxCell id="346jWCT2rO-VqJYA6r8t-54" value="&lt;b&gt;Search View/&lt;br&gt;Product&lt;/b&gt;" style="strokeWidth=2;html=1;shape=mxgraph.flowchart.terminator;whiteSpace=wrap;" parent="WIyWlLk6GJQsqaUBKTNV-1" vertex="1">
          <mxGeometry x="380" y="1576" width="100" height="44" as="geometry" />
        </mxCell>
        <mxCell id="346jWCT2rO-VqJYA6r8t-60" style="edgeStyle=orthogonalEdgeStyle;rounded=0;orthogonalLoop=1;jettySize=auto;html=1;exitX=0.5;exitY=1;exitDx=0;exitDy=0;exitPerimeter=0;entryX=0.5;entryY=0;entryDx=0;entryDy=0;entryPerimeter=0;strokeWidth=2;" parent="WIyWlLk6GJQsqaUBKTNV-1" source="346jWCT2rO-VqJYA6r8t-55" target="346jWCT2rO-VqJYA6r8t-56" edge="1">
          <mxGeometry relative="1" as="geometry" />
        </mxCell>
        <mxCell id="346jWCT2rO-VqJYA6r8t-55" value="&lt;b&gt;Select Product&lt;/b&gt;" style="strokeWidth=2;html=1;shape=mxgraph.flowchart.terminator;whiteSpace=wrap;" parent="WIyWlLk6GJQsqaUBKTNV-1" vertex="1">
          <mxGeometry x="380" y="1648" width="100" height="40" as="geometry" />
        </mxCell>
        <mxCell id="346jWCT2rO-VqJYA6r8t-61" style="edgeStyle=orthogonalEdgeStyle;rounded=0;orthogonalLoop=1;jettySize=auto;html=1;exitX=0.5;exitY=1;exitDx=0;exitDy=0;exitPerimeter=0;strokeWidth=2;" parent="WIyWlLk6GJQsqaUBKTNV-1" source="346jWCT2rO-VqJYA6r8t-56" edge="1">
          <mxGeometry relative="1" as="geometry">
            <mxPoint x="432" y="1792" as="targetPoint" />
          </mxGeometry>
        </mxCell>
        <mxCell id="346jWCT2rO-VqJYA6r8t-56" value="&lt;b&gt;Add to Cart/&lt;br&gt;Make Order&lt;/b&gt;" style="strokeWidth=2;html=1;shape=mxgraph.flowchart.terminator;whiteSpace=wrap;" parent="WIyWlLk6GJQsqaUBKTNV-1" vertex="1">
          <mxGeometry x="382" y="1714" width="100" height="40" as="geometry" />
        </mxCell>
        <mxCell id="346jWCT2rO-VqJYA6r8t-57" value="" style="edgeStyle=orthogonalEdgeStyle;rounded=0;orthogonalLoop=1;jettySize=auto;html=1;exitX=0.482;exitY=0.882;exitDx=0;exitDy=0;entryX=0.5;entryY=0;entryDx=0;entryDy=0;strokeWidth=2;exitPerimeter=0;" parent="WIyWlLk6GJQsqaUBKTNV-1" source="346jWCT2rO-VqJYA6r8t-1" target="346jWCT2rO-VqJYA6r8t-31" edge="1">
          <mxGeometry relative="1" as="geometry">
            <mxPoint x="430" y="1320" as="targetPoint" />
            <mxPoint x="430" y="1232" as="sourcePoint" />
          </mxGeometry>
        </mxCell>
        <mxCell id="346jWCT2rO-VqJYA6r8t-31" value="Login" style="strokeWidth=2;html=1;shape=mxgraph.flowchart.terminator;whiteSpace=wrap;" parent="WIyWlLk6GJQsqaUBKTNV-1" vertex="1">
          <mxGeometry x="390" y="1272" width="80" height="40" as="geometry" />
        </mxCell>
        <mxCell id="346jWCT2rO-VqJYA6r8t-62" value="" style="endArrow=none;html=1;rounded=0;strokeWidth=2;" parent="WIyWlLk6GJQsqaUBKTNV-1" edge="1">
          <mxGeometry width="50" height="50" relative="1" as="geometry">
            <mxPoint x="551" y="1291" as="sourcePoint" />
            <mxPoint x="552" y="1496" as="targetPoint" />
          </mxGeometry>
        </mxCell>
        <mxCell id="346jWCT2rO-VqJYA6r8t-64" value="" style="endArrow=none;html=1;rounded=0;exitX=1;exitY=0.5;exitDx=0;exitDy=0;exitPerimeter=0;strokeWidth=2;" parent="WIyWlLk6GJQsqaUBKTNV-1" source="346jWCT2rO-VqJYA6r8t-31" edge="1">
          <mxGeometry width="50" height="50" relative="1" as="geometry">
            <mxPoint x="477" y="1292" as="sourcePoint" />
            <mxPoint x="551" y="1292" as="targetPoint" />
          </mxGeometry>
        </mxCell>
        <mxCell id="346jWCT2rO-VqJYA6r8t-66" value="" style="endArrow=classic;html=1;rounded=0;entryX=0.5;entryY=0;entryDx=0;entryDy=0;entryPerimeter=0;strokeWidth=2;" parent="WIyWlLk6GJQsqaUBKTNV-1" target="346jWCT2rO-VqJYA6r8t-32" edge="1">
          <mxGeometry width="50" height="50" relative="1" as="geometry">
            <mxPoint x="138" y="1808" as="sourcePoint" />
            <mxPoint x="434" y="1800" as="targetPoint" />
          </mxGeometry>
        </mxCell>
        <mxCell id="346jWCT2rO-VqJYA6r8t-68" value="" style="endArrow=classic;html=1;rounded=0;entryX=0.5;entryY=0;entryDx=0;entryDy=0;entryPerimeter=0;strokeWidth=2;" parent="WIyWlLk6GJQsqaUBKTNV-1" target="346jWCT2rO-VqJYA6r8t-36" edge="1">
          <mxGeometry width="50" height="50" relative="1" as="geometry">
            <mxPoint x="558" y="1808" as="sourcePoint" />
            <mxPoint x="434" y="1800" as="targetPoint" />
          </mxGeometry>
        </mxCell>
        <mxCell id="346jWCT2rO-VqJYA6r8t-72" value="" style="endArrow=classic;html=1;rounded=0;entryX=0.5;entryY=0;entryDx=0;entryDy=0;entryPerimeter=0;strokeWidth=2;" parent="WIyWlLk6GJQsqaUBKTNV-1" target="346jWCT2rO-VqJYA6r8t-34" edge="1">
          <mxGeometry width="50" height="50" relative="1" as="geometry">
            <mxPoint x="328" y="1808" as="sourcePoint" />
            <mxPoint x="434" y="1800" as="targetPoint" />
          </mxGeometry>
        </mxCell>
        <mxCell id="UsB5DTzqqG4fJiuLbt6x-1" value="" style="rounded=0;whiteSpace=wrap;html=1;fillColor=#867474;" parent="WIyWlLk6GJQsqaUBKTNV-1" vertex="1">
          <mxGeometry x="56" y="1790" width="734" height="18" as="geometry" />
        </mxCell>
        <mxCell id="UsB5DTzqqG4fJiuLbt6x-2" value="" style="rounded=0;whiteSpace=wrap;html=1;fillColor=#867474;" parent="WIyWlLk6GJQsqaUBKTNV-1" vertex="1">
          <mxGeometry x="63" y="1975" width="734" height="18" as="geometry" />
        </mxCell>
        <mxCell id="cw4kN3tfvoRz-Rli5H_E-0" value="Start" style="text;html=1;align=center;verticalAlign=middle;resizable=0;points=[];autosize=1;strokeColor=none;fillColor=none;fontStyle=1;fontSize=15;" parent="WIyWlLk6GJQsqaUBKTNV-1" vertex="1">
          <mxGeometry x="442" y="1200" width="52" height="30" as="geometry" />
        </mxCell>
        <mxCell id="cw4kN3tfvoRz-Rli5H_E-2" value="Stop" style="text;html=1;align=center;verticalAlign=middle;resizable=0;points=[];autosize=1;strokeColor=none;fillColor=none;fontSize=15;fontStyle=1" parent="WIyWlLk6GJQsqaUBKTNV-1" vertex="1">
          <mxGeometry x="461" y="2245" width="51" height="30" as="geometry" />
        </mxCell>
        <mxCell id="GRWj7lJAncM1XgftmXL7-0" value="" style="ellipse;html=1;shape=endState;fillColor=#000000;strokeColor=#000000;" vertex="1" parent="WIyWlLk6GJQsqaUBKTNV-1">
          <mxGeometry x="414.5" y="2241" width="39" height="38" as="geometry" />
        </mxCell>
      </root>
    </mxGraphModel>
  </diagram>
</mxfile>
